# Blender v2.92.0 OBJ File: ''
# www.blender.org
mtllib mug.mtl
o model_normalized
v -0.041699 -0.207015 0.328367
v 0.069375 -0.207614 0.264804
v 0.018018 -0.206857 0.303886
v -0.105707 -0.208077 0.336581
v 0.007948 0.232093 0.282150
v -0.051770 0.231935 0.306632
v -0.115777 0.230873 0.314845
v 0.108873 -0.209234 0.213787
v 0.059305 0.231336 0.243069
v -0.179712 0.228980 0.306230
v -0.169642 -0.209970 0.327966
v -0.073741 0.230385 0.285514
v 0.133819 -0.211607 0.154309
v 0.098803 0.229715 0.192051
v -0.018633 0.230796 0.268277
v -0.229149 -0.212566 0.303111
v -0.131420 0.229181 0.287920
v 0.030147 0.230385 0.237383
v -0.239219 0.226384 0.281375
v -0.064076 -0.190882 0.306374
v -0.121756 -0.192086 0.308780
v -0.187741 0.227265 0.275331
v 0.142515 -0.214571 0.090426
v 0.123749 0.227343 0.132573
v 0.069276 0.229181 0.194937
v -0.008968 -0.190471 0.289137
v -0.280171 -0.215688 0.263709
v -0.178076 -0.194002 0.296191
v 0.132445 0.224379 0.068690
v 0.039812 -0.190882 0.258243
v -0.238865 0.224769 0.248604
v -0.290241 0.223262 0.241973
v 0.078941 -0.192086 0.215797
v 0.105752 -0.194002 0.164693
v 0.134365 -0.217924 0.026489
v 0.124295 0.221026 0.004753
v 0.096087 0.227265 0.143833
v -0.319232 -0.219122 0.212445
v 0.118417 -0.196498 0.108412
v -0.229200 -0.196498 0.269464
v 0.106410 0.221862 0.029931
v 0.108753 0.224769 0.087552
v -0.281307 0.221862 0.209561
v -0.329302 0.219828 0.190710
v 0.109928 -0.221438 -0.033143
v 0.099858 0.217512 -0.054879
v 0.089218 0.218742 -0.025105
v -0.343669 -0.222636 0.152813
v 0.116075 -0.199405 0.050791
v -0.271642 -0.199405 0.230421
v 0.098883 -0.202525 -0.004245
v -0.312176 0.218742 0.160861
v -0.353739 0.216314 0.131077
v 0.070868 -0.224872 -0.084407
v 0.060798 0.214078 -0.106143
v 0.058350 0.215623 -0.073804
v 0.068014 -0.205644 -0.052944
v -0.351818 -0.225989 0.088876
v -0.302511 -0.202525 0.181721
v -0.329367 0.215623 0.105826
v -0.361888 0.212961 0.067140
v 0.019845 -0.227994 -0.123809
v 0.009775 0.210956 -0.145545
v 0.015908 0.212716 -0.112847
v 0.025572 -0.208551 -0.091987
v -0.319703 -0.205644 0.126686
v -0.343122 -0.228953 0.024993
v -0.331710 0.212716 0.048205
v -0.353192 0.209997 0.003257
v -0.039660 -0.230590 -0.148664
v -0.049731 0.208360 -0.170400
v -0.035216 0.210220 -0.139574
v -0.025551 -0.211048 -0.118714
v -0.322045 -0.208551 0.069065
v -0.328246 0.207624 -0.056220
v -0.318175 -0.231325 -0.034484
v -0.319044 0.210219 -0.008076
v -0.292233 0.208304 -0.059181
v -0.103596 -0.232483 -0.157279
v -0.091536 0.208304 -0.152164
v -0.309379 -0.211048 0.012784
v -0.288748 0.206004 -0.107238
v -0.253104 0.207100 -0.101627
v -0.278678 -0.232946 -0.085503
v -0.113666 0.206467 -0.179015
v -0.081871 -0.212963 -0.131304
v -0.282568 -0.212963 -0.038321
v -0.243439 -0.214167 -0.080766
v -0.167603 -0.233545 -0.149065
v -0.149216 0.207100 -0.149758
v -0.237390 0.205247 -0.146319
v -0.204323 0.206689 -0.132521
v -0.194659 -0.214578 -0.111661
v -0.227320 -0.233703 -0.124583
v -0.177673 0.205405 -0.170801
v -0.139551 -0.214167 -0.128898
v 0.312907 0.054575 -0.185243
v 0.315740 -0.068916 -0.179128
v 0.323659 -0.007170 -0.186510
v 0.284646 0.109668 -0.175463
v 0.311561 -0.008741 -0.212622
v 0.300809 0.053004 -0.211355
v 0.272548 0.108097 -0.201575
v 0.290007 -0.124010 -0.163892
v 0.303643 -0.070487 -0.205240
v 0.241918 0.152175 -0.158224
v 0.280754 -0.004744 -0.166779
v 0.277909 -0.125581 -0.190004
v 0.229820 0.150604 -0.184336
v 0.271549 0.045112 -0.165512
v 0.273836 -0.054600 -0.160575
v 0.268656 -0.006314 -0.192890
v 0.259451 0.043541 -0.191624
v 0.189328 0.177516 -0.135383
v 0.247350 0.088847 -0.156931
v 0.249229 -0.166516 -0.142443
v 0.261738 -0.056170 -0.186687
v 0.237132 -0.168087 -0.168555
v 0.235252 0.087276 -0.183043
v 0.177230 0.175945 -0.161495
v 0.211130 0.121092 -0.142090
v 0.251644 -0.098335 -0.147663
v 0.239546 -0.099905 -0.173774
v 0.199032 0.119521 -0.168202
v 0.132540 0.182961 -0.109400
v 0.167333 0.137888 -0.122809
v 0.216904 -0.130580 -0.129628
v 0.185704 -0.193428 -0.143204
v 0.155236 0.136317 -0.148921
v 0.120442 0.181390 -0.135512
v 0.197802 -0.191857 -0.117092
v 0.204806 -0.132150 -0.155740
v 0.077670 0.167924 -0.083075
v 0.121339 0.137174 -0.101457
v 0.109241 0.135603 -0.127569
v 0.173878 -0.147376 -0.108684
v 0.129166 -0.198873 -0.116682
v 0.161780 -0.148946 -0.134796
v 0.065573 0.166354 -0.109187
v 0.141263 -0.197302 -0.090570
v 0.066694 0.117465 -0.106766
v 0.078792 0.119036 -0.080654
v 0.127851 -0.146661 -0.087402
v 0.073607 -0.183836 -0.091846
v 0.115753 -0.148231 -0.113514
v 0.085704 -0.182266 -0.065734
v 0.084471 -0.128524 -0.068395
v 0.072374 -0.130094 -0.094507
vn 0.0229 -0.9985 0.0494
vn 0.7039 0.0512 0.7085
vn 0.4962 0.0543 0.8665
vn 0.2546 0.0537 0.9656
vn -0.0043 0.0494 0.9988
vn -0.2629 0.0417 0.9639
vn 0.8637 0.0447 0.5021
vn -0.0229 0.9985 -0.0494
vn -0.5036 0.0312 0.8634
vn 0.9646 0.0351 0.2615
vn -0.4198 -0.0545 -0.9060
vn -0.1706 -0.0526 -0.9839
vn 0.0902 -0.0472 -0.9948
vn -0.6403 -0.0526 -0.7663
vn -0.7099 0.0186 0.7040
vn 0.3448 -0.0385 -0.9379
vn 0.9997 0.0231 0.0031
vn -0.8172 -0.0472 -0.5744
vn 0.5759 -0.0272 -0.8171
vn 0.9668 0.0095 -0.2555
vn -0.8679 0.0047 0.4967
vn -0.9384 -0.0385 -0.3434
vn -0.9957 -0.0272 -0.0889
vn 0.7678 -0.0141 -0.6405
vn 0.8679 -0.0047 -0.4967
vn -0.9668 -0.0095 0.2555
vn -0.9851 -0.0141 0.1716
vn -0.9073 0.0000 0.4204
vn 0.9074 0.0000 -0.4204
vn 0.7099 -0.0186 -0.7040
vn -0.7678 0.0141 0.6405
vn -0.9997 -0.0231 -0.0031
vn 0.9851 0.0141 -0.1716
vn 0.5036 -0.0312 -0.8634
vn -0.5759 0.0272 0.8171
vn -0.9646 -0.0351 -0.2615
vn 0.9957 0.0272 0.0889
vn 0.2629 -0.0417 -0.9639
vn -0.3448 0.0385 0.9379
vn -0.8637 -0.0447 -0.5021
vn 0.9384 0.0385 0.3434
vn 0.0043 -0.0494 -0.9988
vn -0.0902 0.0472 0.9948
vn -0.7039 -0.0512 -0.7085
vn 0.8172 0.0472 0.5744
vn 0.6403 0.0526 0.7663
vn -0.2546 -0.0537 -0.9655
vn 0.1706 0.0526 0.9839
vn -0.4962 -0.0543 -0.8665
vn 0.4198 0.0545 0.9060
vn 0.4197 0.0545 0.9060
vn 0.8659 -0.3233 -0.3817
vn 0.9073 0.0000 -0.4204
vn 0.8511 0.3233 -0.4137
vn 0.7031 0.6117 -0.3625
vn 0.4794 0.8343 -0.2723
vn 0.7312 -0.6118 -0.3020
vn -0.4197 -0.0545 -0.9060
vn 0.2040 0.9670 -0.1527
vn -0.8437 -0.3445 0.4116
vn -0.8596 0.3445 0.3775
vn 0.5176 -0.8343 -0.1896
vn -0.6766 -0.6466 0.3523
vn -0.7062 0.6466 0.2883
vn -0.0933 0.9955 -0.0166
vn -0.4263 -0.8694 0.2498
vn 0.2484 -0.9670 -0.0569
vn -0.1237 -0.9854 0.1166
vn -0.4662 0.8694 0.1637
vn -0.2402 0.9693 0.0530
vn 0.1940 -0.9805 -0.0309
vn -0.0476 -0.9955 0.0819
vn -0.1689 0.9854 0.0190
vn 0.3464 -0.9323 -0.1044
vn -0.1957 -0.9693 0.1490
vn 0.1491 0.9805 -0.1280
vn 0.3036 0.9323 -0.1967
usemtl material_0_24
s 1
f 1//1 2//1 3//1
f 2//1 1//1 4//1
f 2//2 5//3 3//3
f 3//3 6//4 1//4
f 1//4 7//5 4//5
f 2//1 4//1 8//1
f 5//3 2//2 9//2
f 6//4 3//3 5//3
f 7//5 1//4 6//4
f 10//6 4//5 7//5
f 8//1 4//1 11//1
f 8//7 9//2 2//2
f 9//8 6//8 5//8
f 6//8 9//8 7//8
f 4//5 10//6 11//6
f 7//8 12//8 10//8
f 8//1 11//1 13//1
f 9//2 8//7 14//7
f 7//8 9//8 15//8
f 10//6 16//9 11//6
f 12//8 7//8 15//8
f 10//8 12//8 17//8
f 13//1 11//1 16//1
f 13//10 14//7 8//7
f 18//8 9//8 14//8
f 15//8 9//8 18//8
f 16//9 10//6 19//9
f 15//11 20//12 12//12
f 12//12 21//13 17//13
f 10//8 17//8 22//8
f 13//1 16//1 23//1
f 14//7 13//10 24//10
f 18//8 14//8 25//8
f 18//14 26//11 15//11
f 10//8 22//8 19//8
f 19//9 27//15 16//9
f 20//12 15//11 26//11
f 21//13 12//12 20//12
f 28//16 17//13 21//13
f 17//13 28//16 22//16
f 23//1 16//1 27//1
f 29//17 13//10 23//17
f 13//10 29//17 24//10
f 25//8 14//8 24//8
f 25//18 30//14 18//14
f 26//11 18//14 30//14
f 19//8 22//8 31//8
f 27//15 19//9 32//15
f 30//8 20//8 26//8
f 20//8 33//8 21//8
f 21//8 34//8 28//8
f 28//16 31//19 22//16
f 23//1 27//1 35//1
f 23//17 36//20 29//17
f 37//8 24//8 29//8
f 25//8 24//8 37//8
f 30//14 25//18 33//18
f 19//8 31//8 32//8
f 32//15 38//21 27//15
f 20//8 30//8 33//8
f 21//8 33//8 34//8
f 28//8 34//8 39//8
f 31//19 28//16 40//19
f 35//1 27//1 38//1
f 36//20 23//17 35//20
f 41//8 29//8 36//8
f 37//8 29//8 42//8
f 37//22 33//18 25//18
f 32//8 31//8 43//8
f 38//21 32//15 44//21
f 33//18 37//22 34//22
f 37//22 39//23 34//22
f 28//8 39//8 40//8
f 40//19 43//24 31//19
f 35//1 38//1 45//1
f 35//20 46//25 36//20
f 42//8 29//8 41//8
f 41//8 36//8 47//8
f 39//23 37//22 42//23
f 32//8 43//8 44//8
f 44//21 48//26 38//21
f 40//8 39//8 49//8
f 43//24 40//19 50//24
f 45//1 38//1 48//1
f 46//25 35//20 45//25
f 47//8 36//8 46//8
f 49//27 42//23 41//27
f 51//28 41//27 47//28
f 42//23 49//27 39//23
f 44//8 43//8 52//8
f 48//26 44//21 53//26
f 40//8 49//8 50//8
f 50//24 52//29 43//24
f 45//1 48//1 54//1
f 45//25 55//30 46//25
f 47//8 46//8 56//8
f 41//27 51//28 49//27
f 47//28 57//31 51//28
f 44//8 52//8 53//8
f 53//26 58//32 48//26
f 50//8 49//8 51//8
f 52//29 50//24 59//29
f 54//1 48//1 58//1
f 55//30 45//25 54//30
f 56//8 46//8 55//8
f 57//31 47//28 56//31
f 59//8 51//8 57//8
f 53//8 52//8 60//8
f 58//32 53//26 61//32
f 50//8 51//8 59//8
f 59//29 60//33 52//29
f 54//1 58//1 62//1
f 54//30 63//34 55//30
f 56//8 55//8 64//8
f 56//31 65//35 57//31
f 59//8 57//8 66//8
f 53//8 60//8 61//8
f 61//32 67//36 58//32
f 60//33 59//29 66//33
f 62//1 58//1 67//1
f 63//34 54//30 62//34
f 64//8 55//8 63//8
f 65//35 56//31 64//35
f 66//8 57//8 65//8
f 61//8 60//8 68//8
f 67//36 61//32 69//36
f 66//33 68//37 60//33
f 62//1 67//1 70//1
f 62//34 71//38 63//34
f 64//8 63//8 72//8
f 64//35 73//39 65//35
f 66//8 65//8 74//8
f 61//8 68//8 69//8
f 75//40 67//36 69//36
f 68//37 66//33 74//37
f 70//1 67//1 76//1
f 71//38 62//34 70//38
f 72//8 63//8 71//8
f 73//39 64//35 72//39
f 74//8 65//8 73//8
f 69//8 68//8 77//8
f 67//36 75//40 76//40
f 69//8 78//8 75//8
f 74//37 77//41 68//37
f 70//1 76//1 79//1
f 79//42 71//38 70//38
f 72//8 71//8 80//8
f 80//43 73//39 72//39
f 74//8 73//8 81//8
f 69//8 77//8 78//8
f 82//44 76//40 75//40
f 75//8 78//8 83//8
f 77//41 74//37 81//41
f 79//1 76//1 84//1
f 71//38 79//42 85//42
f 80//8 71//8 85//8
f 73//39 80//43 86//43
f 81//8 73//8 86//8
f 77//41 87//45 78//45
f 76//40 82//44 84//44
f 75//8 83//8 82//8
f 78//45 88//46 83//46
f 87//45 77//41 81//41
f 79//1 84//1 89//1
f 89//47 85//42 79//42
f 80//8 85//8 90//8
f 90//48 86//43 80//43
f 81//8 86//8 87//8
f 88//46 78//45 87//45
f 91//49 84//44 82//44
f 82//8 83//8 92//8
f 93//50 83//46 88//46
f 89//1 84//1 94//1
f 85//42 89//47 95//47
f 90//8 85//8 92//8
f 86//43 90//48 96//48
f 87//8 86//8 96//8
f 87//8 96//8 88//8
f 84//44 91//49 94//49
f 82//8 95//8 91//8
f 83//46 93//50 92//50
f 82//8 92//8 85//8
f 88//8 96//8 93//8
f 94//49 95//47 89//47
f 82//8 85//8 95//8
f 92//50 96//48 90//48
f 95//47 94//49 91//49
f 96//48 92//50 93//50
f 97//50 98//50 99//51
f 98//50 97//50 100//50
f 98//52 101//53 99//53
f 99//53 102//54 97//54
f 97//54 103//55 100//55
f 98//50 100//50 104//50
f 101//53 98//52 105//52
f 102//54 99//53 101//53
f 103//55 97//54 102//54
f 103//55 106//56 100//55
f 104//50 100//50 107//51
f 104//57 105//52 98//52
f 105//11 102//11 101//58
f 102//11 108//11 103//11
f 106//56 103//55 109//56
f 110//50 100//50 106//50
f 107//51 100//50 110//50
f 111//50 104//50 107//51
f 105//52 104//57 108//57
f 102//11 105//11 108//11
f 103//11 108//11 112//11
f 103//11 113//11 109//11
f 109//56 114//59 106//56
f 110//50 106//50 115//50
f 110//60 112//28 107//28
f 104//50 111//50 116//50
f 107//28 117//61 111//61
f 104//57 118//62 108//57
f 112//11 108//11 117//11
f 113//11 103//11 112//11
f 109//11 113//11 119//11
f 114//59 109//56 120//59
f 121//50 106//50 114//50
f 115//50 106//50 121//50
f 115//63 113//60 110//60
f 112//28 110//60 113//60
f 117//61 107//28 112//28
f 116//50 111//50 122//50
f 118//62 104//57 116//62
f 123//64 111//61 117//61
f 117//11 108//11 118//11
f 113//60 115//63 119//63
f 109//11 119//11 124//11
f 109//11 124//11 120//11
f 120//59 125//65 114//59
f 121//50 114//50 126//50
f 124//66 115//63 121//66
f 111//61 123//64 122//64
f 116//50 122//50 127//50
f 116//62 128//67 118//62
f 117//11 118//11 123//11
f 115//63 124//66 119//63
f 120//11 124//11 129//11
f 125//65 120//59 130//65
f 126//50 114//50 125//50
f 129//68 121//66 126//68
f 121//66 129//68 124//66
f 123//64 127//69 122//64
f 116//50 127//50 131//50
f 128//67 116//62 131//67
f 132//11 118//11 128//11
f 123//11 118//11 132//11
f 120//11 129//11 130//11
f 130//65 133//70 125//65
f 126//50 125//50 134//50
f 126//68 135//71 129//68
f 127//69 123//64 132//69
f 131//50 127//50 136//50
f 131//67 137//72 128//67
f 132//11 128//11 138//11
f 130//11 129//11 135//11
f 133//70 130//65 139//70
f 134//50 125//50 133//50
f 135//71 126//68 134//71
f 132//69 136//73 127//69
f 131//50 136//50 140//50
f 137//72 131//67 140//72
f 138//11 128//11 137//11
f 136//73 132//69 138//73
f 130//11 135//11 139//11
f 141//28 133//28 139//28
f 134//50 133//50 142//50
f 134//71 141//74 135//71
f 140//50 136//50 143//50
f 140//72 144//75 137//72
f 138//11 137//11 145//11
f 138//73 143//76 136//73
f 139//11 135//11 141//11
f 133//28 141//28 142//28
f 141//74 134//71 142//74
f 140//50 143//50 146//50
f 144//75 140//72 146//75
f 145//11 137//11 144//11
f 143//76 138//73 145//76
f 146//50 143//50 147//50
f 147//28 144//28 146//28
f 145//11 144//11 148//11
f 145//76 147//77 143//76
f 144//28 147//28 148//28
f 147//77 145//76 148//77
