# cube.obj
#

o cube
mtllib cube2.mtl

v -0.500000 -0.500000 0.500000
v 0.500000 -0.500000 0.500000
v -0.500000 0.500000 0.500000
v 0.500000 0.500000 0.500000
v -0.500000 0.500000 -0.500000
v 0.500000 0.500000 -0.500000
v -0.500000 -0.500000 -0.500000
v 0.500000 -0.500000 -0.500000

vt 0.0800000 0.500000
vt 0.240000 0.500000
vt 0.400000 0.500000
vt 0.5600 0.500000
vt 0.820000 0.500000
vt 0.980000 0.500000

vn 0.000000 0.000000 1.000000
vn 0.000000 1.000000 0.000000
vn 0.000000 0.000000 -1.000000
vn 0.000000 -1.000000 0.000000
vn 1.000000 0.000000 0.000000
vn -1.000000 0.000000 0.000000

#g cube
usemtl cube
#usemtl red
#s 1
#f 1 2 3
f 1/1/1 2/1/1 3/1/1
#f 3 2 4 
f 3/1/1 2/1/1 4/1/1
#usemtl yellow
#s 2
#f 3 4 5 
f 3/2/2 4/2/2 5/2/2
#f 5 4 6 
f 5/2/2 4/2/2 6/2/2
#usemtl blue_pure
#s 3
#f 5 6 7 
f 5/3/3 6/3/3 7/3/3
#f 7 6 8 
f 7/3/3 6/3/3 8/3/3
#usemtl lime
#s 4
#f 7 8 1 
f 7/4/4 8/4/4 1/4/4
#f 1 8 2 
f 1/4/4 8/4/4 2/4/4
#usemtl green
#s 5
#f 2 8 4 
f 2/5/5 8/5/5 4/5/5
#f 4 8 6 
f 4/5/5 8/5/5 6/5/5
#usemtl purple
#s 6
#f 7 1 6 
f 7/6/6 1/6/6 5/6/6
#f 5 1 3 
f 5/6/6 1/6/6 3/6/6
